<?xml version="1.0" encoding="utf-8"?>
<!-- Generator: Adobe Illustrator 15.0.2, SVG Export Plug-In . SVG Version: 6.00 Build 0)  -->
<!DOCTYPE svg PUBLIC "-//W3C//DTD SVG 1.1//EN" "http://www.w3.org/Graphics/SVG/1.1/DTD/svg11.dtd">
<svg version="1.1" id="Layer_1" xmlns="http://www.w3.org/2000/svg" xmlns:xlink="http://www.w3.org/1999/xlink" x="0px" y="0px"
	 width="800px" height="600px" viewBox="0 0 800 600" enable-background="new 0 0 800 600" xml:space="preserve">
<g>
	<rect x="-58.506" y="-67.791" fill="#FFFFFF" width="910.45" height="679.466"/>
	<g>
		<g>
			<linearGradient id="SVGID_1_" gradientUnits="userSpaceOnUse" x1="399.5801" y1="151.2549" x2="469.748" y2="151.2549">
				<stop  offset="0" style="stop-color:#83D016"/>
				<stop  offset="1" style="stop-color:#2F8006"/>
			</linearGradient>
			<path fill="url(#SVGID_1_)" d="M413.361,90.742c0,0-40.835,59.189,18.079,121.025c0,0-33.25-73.032,38.308-87.269
				C469.748,124.499,392.638,138.683,413.361,90.742z"/>
			<linearGradient id="SVGID_2_" gradientUnits="userSpaceOnUse" x1="424.959" y1="103.332" x2="451.8867" y2="103.332">
				<stop  offset="0" style="stop-color:#FFE35F"/>
				<stop  offset="0.2247" style="stop-color:#FFDE5A"/>
				<stop  offset="0.4902" style="stop-color:#FFD04D"/>
				<stop  offset="0.7751" style="stop-color:#FFB836"/>
				<stop  offset="1" style="stop-color:#FFA01F"/>
			</linearGradient>
			<path fill="url(#SVGID_2_)" d="M450.779,108.672c-2.953,6.826-10.875,9.965-17.699,7.016c-6.823-2.95-9.964-10.872-7.012-17.697
				c2.95-6.823,10.869-9.964,17.692-7.015C450.589,93.926,453.728,101.848,450.779,108.672z"/>
			<linearGradient id="SVGID_3_" gradientUnits="userSpaceOnUse" x1="326.1206" y1="149.2583" x2="395.8359" y2="149.2583">
				<stop  offset="0" style="stop-color:#00C3DF"/>
				<stop  offset="0.295" style="stop-color:#00BFDC"/>
				<stop  offset="0.5832" style="stop-color:#00B3D3"/>
				<stop  offset="0.868" style="stop-color:#00A0C5"/>
				<stop  offset="1" style="stop-color:#0094BC"/>
			</linearGradient>
			<path fill="url(#SVGID_3_)" d="M383.508,89.05c0,0,39.012,60.412-21.765,120.417c0,0,35.468-71.981-35.623-88.399
				C326.121,121.068,402.759,137.602,383.508,89.05z"/>
			<linearGradient id="SVGID_4_" gradientUnits="userSpaceOnUse" x1="344.6128" y1="100.8696" x2="371.5415" y2="100.8696">
				<stop  offset="0" style="stop-color:#FF5F87"/>
				<stop  offset="1" style="stop-color:#DF0028"/>
			</linearGradient>
			<path fill="url(#SVGID_4_)" d="M345.565,105.83c2.738,6.911,10.565,10.294,17.472,7.552c6.911-2.738,10.293-10.563,7.554-17.475
				c-2.738-6.908-10.563-10.289-17.47-7.553C346.207,91.097,342.823,98.918,345.565,105.83z"/>
			<linearGradient id="SVGID_5_" gradientUnits="userSpaceOnUse" x1="315.103" y1="221.2344" x2="399.918" y2="221.2344">
				<stop  offset="0" style="stop-color:#FF5F87"/>
				<stop  offset="1" style="stop-color:#DF0028"/>
			</linearGradient>
			<path fill="url(#SVGID_5_)" d="M338.369,274.296c0,0,68.755-21.072,60.928-106.123c0,0-19.245,77.904-84.194,44.661
				C315.103,212.834,384.368,249.563,338.369,274.296z"/>
			<linearGradient id="SVGID_6_" gradientUnits="userSpaceOnUse" x1="313.0688" y1="248.8706" x2="339.9946" y2="248.8706">
				<stop  offset="0" style="stop-color:#FFE35F"/>
				<stop  offset="0.2247" style="stop-color:#FFDE5A"/>
				<stop  offset="0.4902" style="stop-color:#FFD04D"/>
				<stop  offset="0.7751" style="stop-color:#FFB836"/>
				<stop  offset="1" style="stop-color:#FFA01F"/>
			</linearGradient>
			<path fill="url(#SVGID_6_)" d="M320.158,237.016c6.548-3.522,14.709-1.068,18.23,5.481c3.519,6.545,1.066,14.708-5.48,18.229
				c-6.546,3.52-14.714,1.068-18.229-5.48C311.155,248.698,313.61,240.538,320.158,237.016z"/>
			<linearGradient id="SVGID_7_" gradientUnits="userSpaceOnUse" x1="292.8286" y1="181.4937" x2="367.917" y2="181.4937">
				<stop  offset="0" style="stop-color:#83D016"/>
				<stop  offset="1" style="stop-color:#2F8006"/>
			</linearGradient>
			<path fill="url(#SVGID_7_)" d="M292.829,167.948c0,0,14.911,48.653,75.088,43.112c0,0-55.122-13.619-31.601-59.574
				C336.316,151.487,310.328,200.498,292.829,167.948z"/>
			<linearGradient id="SVGID_8_" gradientUnits="userSpaceOnUse" x1="301.2905" y1="159.5728" x2="320.3447" y2="159.5728">
				<stop  offset="0" style="stop-color:#FF5F87"/>
				<stop  offset="1" style="stop-color:#DF0028"/>
			</linearGradient>
			<path fill="url(#SVGID_8_)" d="M319.206,155.063c2.492,4.632,0.757,10.407-3.876,12.9c-4.633,2.487-10.409,0.752-12.902-3.881
				c-2.49-4.631-0.755-10.407,3.882-12.899C310.941,148.693,316.714,150.43,319.206,155.063z"/>
			<linearGradient id="SVGID_9_" gradientUnits="userSpaceOnUse" x1="387.0225" y1="226.9702" x2="432.1943" y2="226.9702">
				<stop  offset="0" style="stop-color:#FFE35F"/>
				<stop  offset="0.2247" style="stop-color:#FFDE5A"/>
				<stop  offset="0.4902" style="stop-color:#FFD04D"/>
				<stop  offset="0.7751" style="stop-color:#FFB836"/>
				<stop  offset="1" style="stop-color:#FFA01F"/>
			</linearGradient>
			<path fill="url(#SVGID_9_)" d="M426.493,265.884c0,0,22.215-41.851-21.055-77.827c0,0,27.325,45.259-18.416,60.028
				C387.022,248.085,436.401,232.929,426.493,265.884z"/>
			<linearGradient id="SVGID_10_" gradientUnits="userSpaceOnUse" x1="400.2642" y1="259.5518" x2="418.002" y2="259.5518">
				<stop  offset="0" style="stop-color:#83D016"/>
				<stop  offset="1" style="stop-color:#2F8006"/>
			</linearGradient>
			<path fill="url(#SVGID_10_)" d="M400.643,257c1.409-4.693,6.355-7.349,11.046-5.942c4.689,1.413,7.345,6.356,5.936,11.047
				c-1.405,4.688-6.354,7.351-11.043,5.941C401.888,266.635,399.232,261.689,400.643,257z"/>
			<linearGradient id="SVGID_11_" gradientUnits="userSpaceOnUse" x1="433.3369" y1="191.4873" x2="504.4492" y2="191.4873">
				<stop  offset="0" style="stop-color:#00C3DF"/>
				<stop  offset="0.295" style="stop-color:#00BFDC"/>
				<stop  offset="0.5832" style="stop-color:#00B3D3"/>
				<stop  offset="0.868" style="stop-color:#00A0C5"/>
				<stop  offset="1" style="stop-color:#0094BC"/>
			</linearGradient>
			<path fill="url(#SVGID_11_)" d="M504.449,180.417c0,0-15.26,44.854-71.112,37.988c0,0,51.689-11.105,31.107-54.549
				C464.444,163.855,487.236,210.208,504.449,180.417z"/>
			<linearGradient id="SVGID_12_" gradientUnits="userSpaceOnUse" x1="479.0762" y1="172.1084" x2="496.8145" y2="172.1084">
				<stop  offset="0" style="stop-color:#83D016"/>
				<stop  offset="1" style="stop-color:#2F8006"/>
			</linearGradient>
			<path fill="url(#SVGID_12_)" d="M480.271,167.673c-2.455,4.242-1.005,9.661,3.238,12.115c4.241,2.451,9.664,0.997,12.113-3.242
				c2.452-4.241,1.001-9.667-3.24-12.117C488.142,161.98,482.716,163.431,480.271,167.673z"/>
			<linearGradient id="SVGID_13_" gradientUnits="userSpaceOnUse" x1="436.6504" y1="168.6523" x2="476.416" y2="168.6523">
				<stop  offset="0" style="stop-color:#FF5F87"/>
				<stop  offset="1" style="stop-color:#DF0028"/>
			</linearGradient>
			<path fill="url(#SVGID_13_)" d="M450.561,135.753c0,0-28.24,26.533-4.245,65.798c0,0-9.203-42.247,30.101-41.609
				C476.416,159.943,434.192,158.649,450.561,135.753z"/>
			<linearGradient id="SVGID_14_" gradientUnits="userSpaceOnUse" x1="455.0723" y1="145.2354" x2="469.5781" y2="145.2354">
				<stop  offset="0" style="stop-color:#00C3DF"/>
				<stop  offset="0.295" style="stop-color:#00BFDC"/>
				<stop  offset="0.5832" style="stop-color:#00B3D3"/>
				<stop  offset="0.868" style="stop-color:#00A0C5"/>
				<stop  offset="1" style="stop-color:#0094BC"/>
			</linearGradient>
			<path fill="url(#SVGID_14_)" d="M468.225,149.45c-2.331,3.261-6.855,4.016-10.117,1.685c-3.259-2.33-4.012-6.859-1.681-10.118
				c2.326-3.26,6.857-4.01,10.117-1.681C469.801,141.664,470.556,146.194,468.225,149.45z"/>
			<linearGradient id="SVGID_15_" gradientUnits="userSpaceOnUse" x1="335.0117" y1="168.7114" x2="366.7437" y2="168.7114">
				<stop  offset="0" style="stop-color:#FFE35F"/>
				<stop  offset="0.2247" style="stop-color:#FFDE5A"/>
				<stop  offset="0.4902" style="stop-color:#FFD04D"/>
				<stop  offset="0.7751" style="stop-color:#FFB836"/>
				<stop  offset="1" style="stop-color:#FFA01F"/>
			</linearGradient>
			<path fill="url(#SVGID_15_)" d="M356.393,142.213c0,0,22.048,22.021,1.789,52.996c0,0,8.44-33.733-23.169-34.188
				C335.012,161.022,368.986,161.019,356.393,142.213z"/>
			<linearGradient id="SVGID_16_" gradientUnits="userSpaceOnUse" x1="340.8643" y1="149.5439" x2="352.5337" y2="149.5439">
				<stop  offset="0" style="stop-color:#00C3DF"/>
				<stop  offset="0.295" style="stop-color:#00BFDC"/>
				<stop  offset="0.5832" style="stop-color:#00B3D3"/>
				<stop  offset="0.868" style="stop-color:#00A0C5"/>
				<stop  offset="1" style="stop-color:#0094BC"/>
			</linearGradient>
			<path fill="url(#SVGID_16_)" d="M341.854,152.788c1.789,2.679,5.412,3.395,8.093,1.604c2.675-1.794,3.391-5.415,1.603-8.092
				c-1.795-2.675-5.419-3.395-8.095-1.603C340.774,146.489,340.058,150.114,341.854,152.788z"/>
			<linearGradient id="SVGID_17_" gradientUnits="userSpaceOnUse" x1="361.9312" y1="271.3276" x2="442.0049" y2="271.3276">
				<stop  offset="0" style="stop-color:#00C3DF"/>
				<stop  offset="0.295" style="stop-color:#00BFDC"/>
				<stop  offset="0.5832" style="stop-color:#00B3D3"/>
				<stop  offset="0.868" style="stop-color:#00A0C5"/>
				<stop  offset="1" style="stop-color:#0094BC"/>
			</linearGradient>
			<path fill="url(#SVGID_17_)" d="M361.931,284.482c0,0,38.131,28.123,80.074-9.393c0,0-48.785,20.379-56.674-27.037
				C385.331,248.053,393.068,299.123,361.931,284.482z"/>
			<linearGradient id="SVGID_18_" gradientUnits="userSpaceOnUse" x1="362.8706" y1="267.2422" x2="380.6138" y2="267.2422">
				<stop  offset="0" style="stop-color:#FFE35F"/>
				<stop  offset="0.2247" style="stop-color:#FFDE5A"/>
				<stop  offset="0.4902" style="stop-color:#FFD04D"/>
				<stop  offset="0.7751" style="stop-color:#FFB836"/>
				<stop  offset="1" style="stop-color:#FFA01F"/>
			</linearGradient>
			<path fill="url(#SVGID_18_)" d="M375.518,259.217c4.432,2.083,6.335,7.369,4.25,11.8c-2.084,4.432-7.366,6.334-11.799,4.25
				c-4.435-2.083-6.336-7.366-4.254-11.802C365.8,259.035,371.082,257.134,375.518,259.217z"/>
			<linearGradient id="SVGID_19_" gradientUnits="userSpaceOnUse" x1="437.9258" y1="244.3721" x2="484.4717" y2="244.3721">
				<stop  offset="0" style="stop-color:#83D016"/>
				<stop  offset="1" style="stop-color:#2F8006"/>
			</linearGradient>
			<path fill="url(#SVGID_19_)" d="M471.894,215.393c0,0-37.712,11.356-33.664,57.958c0,0,10.758-42.617,46.242-24.232
				C484.472,249.118,446.63,228.813,471.894,215.393z"/>
			<linearGradient id="SVGID_20_" gradientUnits="userSpaceOnUse" x1="288.1567" y1="216.9385" x2="322.4521" y2="216.9385">
				<stop  offset="0" style="stop-color:#00C3DF"/>
				<stop  offset="0.295" style="stop-color:#00BFDC"/>
				<stop  offset="0.5832" style="stop-color:#00B3D3"/>
				<stop  offset="0.868" style="stop-color:#00A0C5"/>
				<stop  offset="1" style="stop-color:#0094BC"/>
			</linearGradient>
			<path fill="url(#SVGID_20_)" d="M288.157,201.91c0,0,1.455,27.944,34.295,33.028c0,0-27.586-14.627-8.898-35.999
				C313.554,198.939,293.145,221.61,288.157,201.91z"/>
			<linearGradient id="SVGID_21_" gradientUnits="userSpaceOnUse" x1="293.6348" y1="199.8438" x2="304.1108" y2="199.8438">
				<stop  offset="0" style="stop-color:#FFE35F"/>
				<stop  offset="0.2247" style="stop-color:#FFDE5A"/>
				<stop  offset="0.4902" style="stop-color:#FFD04D"/>
				<stop  offset="0.7751" style="stop-color:#FFB836"/>
				<stop  offset="1" style="stop-color:#FFA01F"/>
			</linearGradient>
			<path fill="url(#SVGID_21_)" d="M303.949,198.557c0.71,2.808-0.989,5.658-3.789,6.362c-2.805,0.711-5.655-0.983-6.366-3.791
				c-0.705-2.801,0.987-5.65,3.793-6.363C300.395,194.06,303.238,195.757,303.949,198.557z"/>
			<linearGradient id="SVGID_22_" gradientUnits="userSpaceOnUse" x1="470.9336" y1="229.3506" x2="485.6826" y2="229.3506">
				<stop  offset="0" style="stop-color:#FFE35F"/>
				<stop  offset="0.2247" style="stop-color:#FFDE5A"/>
				<stop  offset="0.4902" style="stop-color:#FFD04D"/>
				<stop  offset="0.7751" style="stop-color:#FFB836"/>
				<stop  offset="1" style="stop-color:#FFA01F"/>
			</linearGradient>
			<path fill="url(#SVGID_22_)" d="M481.767,235.86c-3.595,1.912-8.061,0.544-9.969-3.052c-1.911-3.594-0.547-8.056,3.047-9.967
				c3.6-1.914,8.063-0.547,9.976,3.053C486.729,229.486,485.363,233.95,481.767,235.86z"/>
			<linearGradient id="SVGID_23_" gradientUnits="userSpaceOnUse" x1="304.8872" y1="132.8574" x2="349.4502" y2="132.8574">
				<stop  offset="0" style="stop-color:#00C3DF"/>
				<stop  offset="0.295" style="stop-color:#00BFDC"/>
				<stop  offset="0.5832" style="stop-color:#00B3D3"/>
				<stop  offset="0.868" style="stop-color:#00A0C5"/>
				<stop  offset="1" style="stop-color:#0094BC"/>
			</linearGradient>
			<path fill="url(#SVGID_23_)" d="M304.887,138.469c0,0,19.459,17.535,44.563-0.836c0,0-27.938,8.575-29.718-17.939
				C319.732,119.694,321.228,148.209,304.887,138.469z"/>
			<linearGradient id="SVGID_24_" gradientUnits="userSpaceOnUse" x1="305.71" y1="130.0103" x2="315.5181" y2="130.0103">
				<stop  offset="0" style="stop-color:#83D016"/>
				<stop  offset="1" style="stop-color:#2F8006"/>
			</linearGradient>
			<path fill="url(#SVGID_24_)" d="M313.124,125.799c2.329,1.387,3.087,4.394,1.702,6.721c-1.388,2.325-4.396,3.087-6.724,1.702
				c-2.324-1.384-3.086-4.396-1.699-6.724C307.789,125.175,310.797,124.413,313.124,125.799z"/>
			<linearGradient id="SVGID_25_" gradientUnits="userSpaceOnUse" x1="466.8848" y1="134.3647" x2="498.707" y2="134.3647">
				<stop  offset="0" style="stop-color:#FFE35F"/>
				<stop  offset="0.2247" style="stop-color:#FFDE5A"/>
				<stop  offset="0.4902" style="stop-color:#FFD04D"/>
				<stop  offset="0.7751" style="stop-color:#FFB836"/>
				<stop  offset="1" style="stop-color:#FFA01F"/>
			</linearGradient>
			<path fill="url(#SVGID_25_)" d="M475.771,114.34c0,0,25.81,8.085,22.672,40.05c0,0-7.058-29.342-31.558-16.986
				C466.885,137.403,493.015,123.748,475.771,114.34z"/>
			<linearGradient id="SVGID_26_" gradientUnits="userSpaceOnUse" x1="466.2012" y1="123.876" x2="476.3262" y2="123.876">
				<stop  offset="0" style="stop-color:#83D016"/>
				<stop  offset="1" style="stop-color:#2F8006"/>
			</linearGradient>
			<path fill="url(#SVGID_26_)" d="M468.84,128.318c2.451,1.343,5.528,0.437,6.868-2.019c1.338-2.456,0.434-5.53-2.023-6.869
				c-2.45-1.338-5.527-0.437-6.866,2.02C465.482,123.906,466.385,126.979,468.84,128.318z"/>
			<linearGradient id="SVGID_27_" gradientUnits="userSpaceOnUse" x1="449.6611" y1="264.4756" x2="478.8516" y2="264.4756">
				<stop  offset="0" style="stop-color:#FFE35F"/>
				<stop  offset="0.2247" style="stop-color:#FFDE5A"/>
				<stop  offset="0.4902" style="stop-color:#FFD04D"/>
				<stop  offset="0.7751" style="stop-color:#FFB836"/>
				<stop  offset="1" style="stop-color:#FFA01F"/>
			</linearGradient>
			<path fill="url(#SVGID_27_)" d="M450.058,276.778c0,0,22.237,1,28.794-24.61c0,0-13.709,20.711-29.19,4.271
				C449.661,256.438,466.041,274.347,450.058,276.778z"/>
			<linearGradient id="SVGID_28_" gradientUnits="userSpaceOnUse" x1="445.0781" y1="268.1348" x2="453.4121" y2="268.1348">
				<stop  offset="0" style="stop-color:#00C3DF"/>
				<stop  offset="0.295" style="stop-color:#00BFDC"/>
				<stop  offset="0.5832" style="stop-color:#00B3D3"/>
				<stop  offset="0.868" style="stop-color:#00A0C5"/>
				<stop  offset="1" style="stop-color:#0094BC"/>
			</linearGradient>
			<path fill="url(#SVGID_28_)" d="M448.618,264.015c2.282-0.344,4.4,1.219,4.745,3.493c0.348,2.276-1.214,4.402-3.491,4.747
				c-2.271,0.343-4.396-1.218-4.746-3.495C444.781,266.489,446.344,264.36,448.618,264.015z"/>
			<linearGradient id="SVGID_29_" gradientUnits="userSpaceOnUse" x1="477.7334" y1="211.9531" x2="505.2803" y2="211.9531">
				<stop  offset="0" style="stop-color:#FF5F87"/>
				<stop  offset="1" style="stop-color:#DF0028"/>
			</linearGradient>
			<path fill="url(#SVGID_29_)" d="M492.733,233.57c0,0,21.055-15.094,8.616-43.235c0,0,2.374,28.81-23.616,24.924
				C477.733,215.259,505.595,219.839,492.733,233.57z"/>
		</g>
		<g>
			<g>
				<linearGradient id="SVGID_30_" gradientUnits="userSpaceOnUse" x1="344.9414" y1="408.9316" x2="344.9414" y2="428.5762">
					<stop  offset="0" style="stop-color:#FF8A39"/>
					<stop  offset="0.8989" style="stop-color:#FF4C1F"/>
				</linearGradient>
				<polygon fill="url(#SVGID_30_)" points="339.044,411.393 343.745,411.393 343.745,428.576 346.134,428.576 346.134,411.393 
					350.873,411.393 350.873,408.932 339.01,408.932 				"/>
				<linearGradient id="SVGID_31_" gradientUnits="userSpaceOnUse" x1="360.3403" y1="408.8896" x2="360.3403" y2="428.5762">
					<stop  offset="0" style="stop-color:#FF8A39"/>
					<stop  offset="0.8989" style="stop-color:#FF4C1F"/>
				</linearGradient>
				<rect x="359.112" y="408.89" fill="url(#SVGID_31_)" width="2.456" height="19.687"/>
				<linearGradient id="SVGID_32_" gradientUnits="userSpaceOnUse" x1="376.3462" y1="408.8896" x2="376.3462" y2="428.5762">
					<stop  offset="0" style="stop-color:#FF8A39"/>
					<stop  offset="0.8989" style="stop-color:#FF4C1F"/>
				</linearGradient>
				<polygon fill="url(#SVGID_32_)" points="380.218,423.225 372.432,408.89 369.975,408.89 369.975,428.576 372.432,428.576 
					372.432,413.971 380.246,428.576 382.718,428.576 382.718,408.89 380.218,408.89 				"/>
				<linearGradient id="SVGID_33_" gradientUnits="userSpaceOnUse" x1="279.7769" y1="408.8896" x2="279.7769" y2="428.5762">
					<stop  offset="0" style="stop-color:#FF8A39"/>
					<stop  offset="0.8989" style="stop-color:#FF4C1F"/>
				</linearGradient>
				<path fill="url(#SVGID_33_)" d="M281.004,408.89h-2.456l-6.856,19.687h2.758l2.253-6.685h6.147l2.25,6.685h2.762L281.004,408.89
					z M277.52,419.432l2.272-6.637l2.205,6.637H277.52z"/>
				<linearGradient id="SVGID_34_" gradientUnits="userSpaceOnUse" x1="324.5991" y1="408.8242" x2="324.5991" y2="428.5762">
					<stop  offset="0" style="stop-color:#FF8A39"/>
					<stop  offset="0.8989" style="stop-color:#FF4C1F"/>
				</linearGradient>
				<path fill="url(#SVGID_34_)" d="M328.176,408.824h-7.154c-0.761,0-1.418,0.271-1.96,0.813c-0.546,0.542-0.813,1.195-0.813,1.965
					v5.309c0,0.765,0.267,1.419,0.813,1.967c0.536,0.541,1.189,0.813,1.954,0.813h5.895c0.469,0,0.858,0.179,1.177,0.54
					c0.315,0.368,0.481,0.791,0.481,1.28v3.008c0,0.488-0.166,0.912-0.481,1.276c-0.318,0.357-0.719,0.535-1.184,0.535h-4.571
					c-0.497,0-0.903-0.178-1.221-0.535c-0.314-0.364-0.48-0.788-0.48-1.276v-3.1h-2.382v4.389c0,0.765,0.267,1.414,0.813,1.96
					c0.542,0.535,1.2,0.808,1.96,0.808h7.154c0.765,0,1.417-0.272,1.961-0.808c0.544-0.546,0.813-1.195,0.813-1.955v-5.597
					c0-0.765-0.269-1.42-0.813-1.954c-0.537-0.544-1.191-0.813-1.955-0.813h-5.894c-0.469,0-0.86-0.182-1.178-0.552
					c-0.314-0.364-0.48-0.786-0.48-1.286v-2.715c0-0.491,0.166-0.922,0.48-1.286c0.318-0.362,0.718-0.548,1.187-0.548h4.568
					c0.496,0,0.902,0.186,1.22,0.54c0.315,0.372,0.481,0.797,0.481,1.29v2.798h2.383v-4.094c0-0.764-0.269-1.417-0.813-1.959
					C329.593,409.095,328.941,408.824,328.176,408.824z"/>
				<linearGradient id="SVGID_35_" gradientUnits="userSpaceOnUse" x1="303.0063" y1="408.8242" x2="303.0063" y2="428.5762">
					<stop  offset="0" style="stop-color:#FF8A39"/>
					<stop  offset="0.8989" style="stop-color:#FF4C1F"/>
				</linearGradient>
				<path fill="url(#SVGID_35_)" d="M307.446,424.527c0,0.491-0.158,0.909-0.475,1.269c-0.324,0.364-0.728,0.535-1.218,0.535h-5.527
					c-0.475,0-0.87-0.178-1.184-0.535c-0.324-0.359-0.483-0.785-0.483-1.276v-15.695h-2.381v16.984c0,0.765,0.269,1.414,0.811,1.96
					c0.545,0.535,1.199,0.808,1.963,0.808h8.101c0.771,0,1.424-0.266,1.971-0.808c0.536-0.535,0.81-1.189,0.81-1.947v-16.997h-2.388
					V424.527z"/>
				<linearGradient id="SVGID_36_" gradientUnits="userSpaceOnUse" x1="492.9375" y1="408.8896" x2="492.9375" y2="428.5762">
					<stop  offset="0" style="stop-color:#FF8A39"/>
					<stop  offset="0.8989" style="stop-color:#FF4C1F"/>
				</linearGradient>
				<path fill="url(#SVGID_36_)" d="M494.164,408.89h-2.457l-6.856,19.687h2.761l2.243-6.685h6.156l2.249,6.685h2.765
					L494.164,408.89z M490.682,419.432l2.271-6.637l2.197,6.637H490.682z"/>
				<linearGradient id="SVGID_37_" gradientUnits="userSpaceOnUse" x1="468.4766" y1="408.8896" x2="468.4766" y2="428.5762">
					<stop  offset="0" style="stop-color:#FF8A39"/>
					<stop  offset="0.8989" style="stop-color:#FF4C1F"/>
				</linearGradient>
				<polygon fill="url(#SVGID_37_)" points="473.471,408.89 468.491,416.417 463.488,408.89 460.398,408.89 466.932,418.702 
					460.351,428.576 463.133,428.576 468.501,420.652 473.823,428.576 476.604,428.576 470.038,418.724 476.604,408.89 				"/>
				<linearGradient id="SVGID_38_" gradientUnits="userSpaceOnUse" x1="515.3945" y1="408.8242" x2="515.3945" y2="428.5762">
					<stop  offset="0" style="stop-color:#FF8A39"/>
					<stop  offset="0.8989" style="stop-color:#FF4C1F"/>
				</linearGradient>
				<path fill="url(#SVGID_38_)" d="M521.745,415.69v-4.094c0-0.764-0.271-1.417-0.815-1.959c-0.542-0.543-1.197-0.813-1.96-0.813
					h-7.153c-0.766,0-1.421,0.271-1.963,0.813c-0.543,0.542-0.811,1.195-0.811,1.965v5.309c0,0.765,0.268,1.419,0.811,1.967
					c0.538,0.541,1.189,0.813,1.955,0.813h5.895c0.469,0,0.858,0.179,1.178,0.54c0.324,0.368,0.481,0.791,0.481,1.28v3.008
					c0,0.488-0.168,0.912-0.481,1.276c-0.323,0.357-0.719,0.535-1.186,0.535h-4.569c-0.497,0-0.897-0.178-1.221-0.535
					c-0.316-0.364-0.482-0.788-0.482-1.276v-3.1h-2.38v4.389c0,0.765,0.268,1.414,0.811,1.96c0.542,0.535,1.197,0.808,1.963,0.808
					h7.153c0.763,0,1.418-0.272,1.96-0.808c0.545-0.546,0.815-1.195,0.815-1.955v-5.597c0-0.765-0.271-1.42-0.815-1.954
					c-0.538-0.544-1.188-0.813-1.952-0.813h-5.897c-0.469,0-0.858-0.182-1.175-0.552c-0.321-0.364-0.482-0.786-0.482-1.286v-2.715
					c0-0.491,0.166-0.922,0.482-1.286c0.323-0.362,0.716-0.548,1.186-0.548h4.579c0.484,0,0.888,0.186,1.211,0.54
					c0.313,0.372,0.481,0.797,0.481,1.29v2.798H521.745z"/>
				<linearGradient id="SVGID_39_" gradientUnits="userSpaceOnUse" x1="425.7246" y1="408.9316" x2="425.7246" y2="428.5762">
					<stop  offset="0" style="stop-color:#FF8A39"/>
					<stop  offset="0.8989" style="stop-color:#FF4C1F"/>
				</linearGradient>
				<polygon fill="url(#SVGID_39_)" points="419.829,411.393 424.534,411.393 424.534,428.576 426.922,428.576 426.922,411.393 
					431.657,411.393 431.657,408.932 419.793,408.932 				"/>
				<linearGradient id="SVGID_40_" gradientUnits="userSpaceOnUse" x1="445.8145" y1="408.8896" x2="445.8145" y2="428.5762">
					<stop  offset="0" style="stop-color:#FF8A39"/>
					<stop  offset="0.8989" style="stop-color:#FF4C1F"/>
				</linearGradient>
				<polygon fill="url(#SVGID_40_)" points="439.897,428.576 451.731,428.576 451.731,426.116 442.356,426.116 442.356,419.834 
					451.731,419.834 451.731,417.38 442.356,417.38 442.356,411.393 451.731,411.393 451.731,408.932 439.897,408.89 				"/>
				<linearGradient id="SVGID_41_" gradientUnits="userSpaceOnUse" x1="402.5938" y1="412.3359" x2="402.5938" y2="425.0615">
					<stop  offset="0" style="stop-color:#00C3DF"/>
					<stop  offset="0.295" style="stop-color:#00BFDC"/>
					<stop  offset="0.5832" style="stop-color:#00B3D3"/>
					<stop  offset="0.868" style="stop-color:#00A0C5"/>
					<stop  offset="1" style="stop-color:#0094BC"/>
				</linearGradient>
				<path fill="url(#SVGID_41_)" d="M402.593,412.336c-3.512,0-6.362,2.85-6.362,6.364c0,3.512,2.85,6.361,6.362,6.361
					c3.51,0,6.363-2.85,6.363-6.361C408.956,415.186,406.103,412.336,402.593,412.336z"/>
			</g>
			<g>
				<linearGradient id="SVGID_42_" gradientUnits="userSpaceOnUse" x1="450.7422" y1="384.2363" x2="450.7422" y2="402.9531">
					<stop  offset="0.0056" style="stop-color:#8B8B8B"/>
					<stop  offset="1" style="stop-color:#3C3C3C"/>
				</linearGradient>
				<path fill="url(#SVGID_42_)" d="M381.497,388.084c-0.206,0.035-0.432,0.071-0.692,0.109c-0.447,0.036-0.576,0.558-0.559,0.987
					c0.017,0.673-0.149,1.905-0.597,4.385l-0.336,1.829c-0.148,0.82-0.278,1.379-0.373,1.792c-0.13,0.465,0.186,0.95,0.653,0.934
					c0.057,0,0.094,0,0.152,0c0.519,0,1.007-0.357,1.044-0.878c0.055-0.654,0.205-1.754,0.542-3.622l0.54-3.038
					c0.148-0.84,0.262-1.345,0.334-1.718C382.299,388.418,381.945,387.969,381.497,388.084z M381.945,384.463
					c-0.897,0-1.306,0.933-1.306,1.492c0,0.67,0.465,0.968,0.914,0.968c0.839,0,1.286-0.947,1.286-1.546
					C382.839,384.762,382.429,384.463,381.945,384.463z M388.175,387.765c-0.334,0.017-0.932,0.017-1.418,0.036
					c0.149-0.82,0.263-1.327,0.428-1.92c0.113-0.433-0.334-0.767-0.764-0.673c-0.614,0.15-1.061,0.653-1.119,1.266
					c-0.038,0.433-0.095,0.807-0.186,1.327c0,0,0,0-0.188-0.02c-0.355-0.035-0.653,0.262-0.707,0.617
					c-0.055,0.316,0.167,0.615,0.485,0.615l0.167,0.018l-1.213,6.232c-0.224,1.176-0.26,1.79,0.189,2.407
					c0.276,0.371,1.005,0.726,2.052,0.726c0.149,0,0.295,0,0.447-0.016c0.484-0.059,0.818-0.468,0.932-0.934
					c0.075-0.3-0.149-0.597-0.447-0.523c-0.148,0.037-0.319,0.055-0.506,0.055c-0.63,0-1.079-0.299-1.079-1.025
					c0-0.538,0.147-1.381,0.354-2.351c0.222-1.174,0.672-3.411,0.894-4.571c0.261,0,0.931,0,1.307,0.019
					c0.41,0,0.801-0.242,0.894-0.632C388.771,388.084,388.512,387.746,388.175,387.765z M392.578,384.742
					c-0.091-0.32-0.411-0.506-0.747-0.506c-0.522,0-1.082,0.317-1.211,0.972c-0.02,0.09-0.02,0.169-0.039,0.335l-0.073,4.366
					c0,0.111,0.092,0.202,0.204,0.202c0.132,0,0.244-0.091,0.3-0.202l1.528-4.591C392.599,385.133,392.633,384.948,392.578,384.742z
					 M398.437,387.911c-0.354-0.092-0.71-0.13-1.194-0.13c-0.711,0-2.016,0.13-2.967,0.839c-0.86,0.657-1.475,1.588-1.475,2.65
					c0,1.271,0.988,1.866,1.514,2.184l1.154,0.672c0.579,0.336,1.102,0.69,1.102,1.344c0,0.762-0.783,1.584-2.256,1.584
					c-0.767,0-1.251-0.13-1.606-0.297c-0.372-0.187-0.84-0.077-0.969,0.333c-0.169,0.523,0.092,1.103,0.634,1.215
					c0.39,0.092,0.782,0.13,1.324,0.13c0.781,0,2.014-0.054,3.133-0.859c1.066-0.782,1.438-1.865,1.438-2.704
					c0-1.175-0.802-1.68-1.324-1.994l-0.951-0.581c-0.71-0.39-1.402-0.781-1.402-1.603c0-0.749,0.784-1.662,2.202-1.662
					c0.448,0,0.803,0.093,1.084,0.224c0.372,0.187,0.856,0.095,1.044-0.297C399.109,388.529,398.904,388.007,398.437,387.911z
					 M408.773,387.765c-0.335,0.017-0.931,0.017-1.418,0.036c0.149-0.82,0.26-1.327,0.428-1.92c0.113-0.433-0.333-0.767-0.765-0.673
					c-0.615,0.15-1.063,0.653-1.121,1.266c-0.036,0.433-0.091,0.807-0.186,1.327c0,0,0,0-0.187-0.02
					c-0.354-0.035-0.65,0.262-0.708,0.617c-0.054,0.316,0.168,0.615,0.485,0.615l0.167,0.018l-1.212,6.232
					c-0.223,1.176-0.262,1.79,0.188,2.407c0.278,0.371,1.008,0.726,2.054,0.726c0.148,0,0.297,0,0.447-0.016
					c0.485-0.059,0.818-0.468,0.933-0.934c0.075-0.3-0.152-0.597-0.447-0.523c-0.15,0.037-0.318,0.055-0.508,0.055
					c-0.634,0-1.08-0.299-1.08-1.025c0-0.538,0.148-1.381,0.354-2.351c0.222-1.174,0.672-3.411,0.895-4.571
					c0.263,0,0.936,0,1.307,0.019c0.41,0,0.803-0.242,0.896-0.632C409.371,388.084,409.108,387.746,408.773,387.765z
					 M416.105,387.746c-0.523,0-1.251,0.091-2.053,0.613c-0.894,0.541-1.513,2.09-1.866,2.613l0.617-3.357
					c0.186-0.934,0.279-1.4,0.392-1.942c0.111-0.465-0.354-0.84-0.82-0.745c-0.205,0.038-0.412,0.058-0.634,0.075
					c-0.408,0.036-0.544,0.523-0.523,0.952c0.016,0.558-0.131,1.565-0.504,3.544l-0.952,5.222c-0.263,1.383-0.409,2.092-0.56,2.559
					c-0.13,0.449,0.205,0.877,0.653,0.877c0.599,0,1.102-0.428,1.195-1.03c0.167-1.264,0.631-3.597,0.709-3.935
					c0.447-1.827,0.969-2.59,1.343-2.983c0.579-0.635,1.363-0.991,2.146-0.991c1.527,0,1.473,1.064,1.266,2.24l-0.726,4.235
					c-0.133,0.747-0.227,1.212-0.317,1.55c-0.131,0.466,0.279,0.895,0.768,0.895c0.556,0,1.042-0.408,1.078-0.95
					c0.036-0.374,0.095-0.875,0.17-1.383l0.726-4.179c0.172-0.951,0.243-1.434,0.243-1.847
					C418.456,388.305,417.298,387.746,416.105,387.746z M425.581,387.746c-1.212,0-2.891,0.52-4.18,2.107
					c-0.598,0.748-1.564,2.389-1.564,4.458c0.036,2.333,0.764,4.051,3.73,4.142c0.707,0,1.286-0.091,1.752-0.186
					c0.467-0.111,0.785-0.539,0.915-0.988c0.074-0.281-0.169-0.544-0.411-0.429c-0.445,0.184-1.042,0.375-1.829,0.375
					c-2.853,0.017-2.218-3.1-2.218-3.1c1.493-0.059,2.741-0.095,4.066-0.729c0.598-0.3,1.286-0.745,1.791-1.528
					c0.372-0.562,0.601-1.286,0.601-1.884C428.234,388.715,427.335,387.746,425.581,387.746z M425.528,391.942
					c-1.047,0.989-2.354,1.734-3.695,1.754c0.129-1.009,0.503-2.838,1.342-3.787c0.803-0.931,1.606-1.063,1.997-1.063
					c0.651,0,1.252,0.391,1.252,1.229C426.424,390.787,426.049,391.438,425.528,391.942z M438.883,387.746
					c-1.213,0-2.891,0.52-4.18,2.107c-0.595,0.748-1.566,2.389-1.566,4.458c0.037,2.333,0.764,4.051,3.732,4.142
					c0.709,0,1.287-0.091,1.751-0.186c0.469-0.111,0.785-0.539,0.914-0.988c0.076-0.281-0.165-0.544-0.408-0.429
					c-0.448,0.184-1.045,0.375-1.829,0.375c-2.853,0.017-2.219-3.1-2.219-3.1c1.492-0.059,2.741-0.095,4.066-0.729
					c0.597-0.3,1.286-0.745,1.79-1.528c0.375-0.562,0.598-1.286,0.598-1.884C441.532,388.715,440.64,387.746,438.883,387.746z
					 M438.826,391.942c-1.043,0.989-2.351,1.734-3.692,1.754c0.13-1.009,0.504-2.838,1.342-3.787
					c0.803-0.931,1.605-1.063,1.997-1.063c0.653,0,1.253,0.391,1.253,1.229C439.726,390.787,439.35,391.438,438.826,391.942z
					 M449.088,396.401l-1.734-3.47l2.108-2.33c0.24-0.263,1.271-1.385,1.492-1.606c0.129-0.131,0.242-0.244,0.355-0.354
					c0.223-0.223,0.13-0.615-0.187-0.615c-0.058,0-0.114,0-0.169,0c-0.075,0-0.13,0-0.186,0c-0.654-0.019-1.231,0.393-1.624,0.913
					c-0.186,0.26-0.466,0.616-0.896,1.138l-1.51,1.717l-0.651-1.529c-0.264-0.579-0.432-0.968-0.544-1.285
					c-0.166-0.561-0.689-0.936-1.27-0.936c-0.073,0-0.147,0-0.224,0c-0.072,0-0.147,0-0.205,0c-0.447,0-0.745,0.449-0.521,0.821
					c0.203,0.334,0.374,0.653,0.521,0.931l1.681,3.378l-3.172,3.451c-0.446,0.449-0.747,0.749-0.953,0.951
					c-0.222,0.227,0.019,0.562,0.336,0.562c0.057,0,0.131,0,0.188,0c0.615,0.02,1.213-0.28,1.604-0.764
					c0.171-0.206,0.393-0.485,0.71-0.844l1.885-2.197l0.988,2.274c0.095,0.206,0.169,0.372,0.225,0.541
					c0.24,0.581,0.802,1.009,1.456,0.973c0.053,0,0.11,0,0.187,0c0.057,0,0.11,0,0.167,0c0.372,0.017,0.614-0.374,0.447-0.693
					C449.462,397.167,449.292,396.851,449.088,396.401z M458.528,387.801c-1.098,0-1.754,0.465-1.977,0.635
					c-0.97,0.688-1.625,2.407-2.054,3.058l0.54-2.665c0.096-0.451-0.332-0.803-0.802-0.728c-0.184,0.035-0.408,0.073-0.689,0.093
					c-0.391,0.036-0.521,0.483-0.485,0.876c0.037,0.391,0,0.951-0.15,1.789c-0.147,0.915-0.222,1.384-0.371,2.184l-1.177,6.104
					c-0.204,1.043-0.409,2.144-0.653,2.983c-0.129,0.449,0.299,0.822,0.767,0.822c0.056,0,0.11,0,0.169,0
					c0.54,0.036,0.933-0.449,0.988-0.991c0.036-0.354,0.092-0.819,0.205-1.471l0.428-2.369c0.786,0.166,1.362,0.222,1.754,0.222
					c1.398,0,2.724-0.634,3.714-1.624c1.399-1.4,2.258-3.881,2.258-5.839C460.992,388.864,460.021,387.801,458.528,387.801z
					 M457.668,396.01c-0.331,0.409-1.025,1.1-2.423,1.1c-0.84,0-1.307-0.259-1.698-0.465c0.148-0.803,0.506-2.761,0.841-3.862
					c0.65-2.125,1.866-3.396,3.079-3.396c1.155,0,1.623,0.953,1.623,2.036C459.09,392.521,458.772,394.721,457.668,396.01z
					 M467.744,387.746c-1.212,0-2.89,0.52-4.179,2.107c-0.598,0.748-1.566,2.389-1.566,4.458c0.036,2.333,0.763,4.051,3.731,4.142
					c0.708,0,1.29-0.091,1.754-0.186c0.467-0.111,0.783-0.539,0.916-0.988c0.072-0.281-0.17-0.544-0.413-0.429
					c-0.448,0.184-1.046,0.375-1.827,0.375c-2.854,0.017-2.221-3.1-2.221-3.1c1.492-0.059,2.741-0.095,4.068-0.729
					c0.594-0.3,1.286-0.745,1.79-1.528c0.374-0.562,0.595-1.286,0.595-1.884C470.393,388.715,469.497,387.746,467.744,387.746z
					 M467.689,391.942c-1.045,0.989-2.351,1.734-3.694,1.754c0.13-1.009,0.506-2.838,1.344-3.787
					c0.803-0.931,1.603-1.063,1.994-1.063c0.654,0,1.251,0.391,1.251,1.229C468.584,390.787,468.211,391.438,467.689,391.942z
					 M477.37,388.659c0.149-0.43-0.166-0.913-0.612-0.786c-0.281,0.096-0.618,0.246-1.011,0.504c-0.97,0.654-1.64,2.225-2.068,2.911
					c0.147-0.78,0.465-2.09,0.54-2.441c0.092-0.47-0.356-0.804-0.821-0.711c-0.147,0.02-0.316,0.038-0.502,0.058
					c-0.448,0.055-0.655,0.541-0.617,0.987c0.019,0.427-0.038,1.063-0.223,2.072l-0.915,5.059c-0.037,0.276-0.132,0.612-0.225,0.931
					c-0.13,0.466,0.281,0.878,0.747,0.878c0.037,0,0.054,0,0.091,0c0.543,0.017,0.994-0.412,1.047-0.953
					c0.095-1.232,0.524-3.695,0.803-4.685c0.524-1.864,1.585-2.647,2.461-2.853C476.625,389.499,477.183,389.198,477.37,388.659z
					 M480.148,384.463c-0.895,0-1.305,0.933-1.305,1.492c0,0.67,0.468,0.968,0.914,0.968c0.839,0,1.289-0.947,1.289-1.546
					C481.047,384.762,480.637,384.463,480.148,384.463z M479.7,388.084c-0.201,0.035-0.426,0.071-0.686,0.109
					c-0.447,0.036-0.58,0.558-0.563,0.987c0.019,0.673-0.148,1.905-0.598,4.385l-0.335,1.829c-0.149,0.82-0.279,1.379-0.374,1.792
					c-0.129,0.465,0.188,0.95,0.655,0.934c0.054,0,0.094,0,0.15,0c0.52,0,1.006-0.357,1.044-0.878
					c0.055-0.654,0.205-1.754,0.54-3.622l0.54-3.038c0.15-0.84,0.265-1.345,0.338-1.718
					C480.507,388.418,480.148,387.969,479.7,388.084z M487.258,387.746c-1.213,0-2.892,0.52-4.178,2.107
					c-0.599,0.748-1.566,2.389-1.566,4.458c0.036,2.333,0.765,4.051,3.729,4.142c0.709,0,1.29-0.091,1.755-0.186
					c0.466-0.111,0.782-0.539,0.914-0.988c0.074-0.281-0.169-0.544-0.412-0.429c-0.446,0.184-1.042,0.375-1.827,0.375
					c-2.856,0.017-2.22-3.1-2.22-3.1c1.493-0.059,2.742-0.095,4.069-0.729c0.594-0.3,1.285-0.745,1.788-1.528
					c0.373-0.562,0.597-1.286,0.597-1.884C489.907,388.715,489.012,387.746,487.258,387.746z M487.203,391.942
					c-1.045,0.989-2.351,1.734-3.692,1.754c0.129-1.009,0.5-2.838,1.342-3.787c0.803-0.931,1.605-1.063,1.997-1.063
					c0.65,0,1.248,0.391,1.248,1.229C488.098,390.787,487.725,391.438,487.203,391.942z M497.259,387.746
					c-0.95,0-1.864,0.354-2.612,0.931c-0.54,0.432-1.008,1.736-1.344,2.24c0.112-0.636,0.355-1.848,0.431-2.22
					c0.091-0.449-0.318-0.824-0.768-0.729c-0.202,0.038-0.409,0.074-0.631,0.092c-0.43,0.04-0.582,0.521-0.563,0.953
					c0,0.036,0,0.075,0,0.11c0,0.711-0.148,1.663-0.276,2.428l-0.602,3.507c-0.128,0.876-0.257,1.548-0.463,2.238
					c-0.131,0.432,0.261,0.823,0.728,0.804c0.036,0,0.094,0,0.147,0c0.524,0,1.008-0.354,1.046-0.875
					c0.021-0.357,0.057-0.786,0.15-1.363l0.336-2.186c0.166-1.025,0.373-2.277,1.063-3.169c0.54-0.713,1.531-1.291,2.408-1.291
					c1.791,0,1.659,0.991,1.211,3.507l-0.226,1.252c-0.317,1.828-0.519,2.742-0.69,3.321c-0.11,0.432,0.244,0.84,0.69,0.823
					c0.058,0,0.114,0,0.169,0c0.543,0,1.009-0.392,1.048-0.934c0.055-0.955,0.313-2.466,0.464-3.266l0.467-2.614
					c0.167-0.894,0.222-1.286,0.222-1.622C499.663,388.155,498.283,387.746,497.259,387.746z M508.509,387.932
					c-0.335-0.075-0.728-0.131-1.212-0.131c-4.291,0-6.307,3.599-6.307,6.511c0,2.539,1.64,4.123,4.386,4.123
					c0.315,0,0.633-0.018,0.932-0.054c0.468-0.059,0.896-0.377,1.064-0.822c0.091-0.279-0.075-0.616-0.356-0.54
					c-0.374,0.129-0.763,0.207-1.249,0.207c-0.562,0-1.1-0.116-1.585-0.433c-0.989-0.635-1.176-1.718-1.176-2.611
					c0-2.574,1.491-5.112,4.01-5.112c0.356,0,0.638,0.055,0.859,0.129c0.372,0.151,0.839,0.098,0.989-0.277
					C509.015,388.529,508.92,388.025,508.509,387.932z M514.553,387.746c-1.212,0-2.892,0.52-4.178,2.107
					c-0.6,0.748-1.567,2.389-1.567,4.458c0.037,2.333,0.766,4.051,3.73,4.142c0.708,0,1.29-0.091,1.756-0.186
					c0.465-0.111,0.781-0.539,0.914-0.988c0.073-0.281-0.17-0.544-0.413-0.429c-0.445,0.184-1.045,0.375-1.827,0.375
					c-2.854,0.017-2.22-3.1-2.22-3.1c1.491-0.059,2.743-0.095,4.068-0.729c0.597-0.3,1.285-0.745,1.789-1.528
					c0.374-0.562,0.597-1.286,0.597-1.884C517.202,388.715,516.306,387.746,514.553,387.746z M514.497,391.942
					c-1.044,0.989-2.35,1.734-3.694,1.754c0.132-1.009,0.506-2.838,1.345-3.787c0.803-0.931,1.603-1.063,1.993-1.063
					c0.654,0,1.252,0.391,1.252,1.229C515.393,390.787,515.02,391.438,514.497,391.942z M521.717,385.133
					c-0.633,0.075-1.211,0.484-1.286,1.101c-0.113,1.193-0.301,2.144-0.728,4.57c-0.354,1.997-0.505,2.779-0.635,3.378
					c-0.093,0.409,0.281,0.764,0.71,0.764c0.466,0,0.878-0.318,0.949-0.764c0.412-2.462,1.325-6.417,1.827-8.284
					C522.67,385.432,522.186,385.079,521.717,385.133z M519.593,395.953c-0.617,0-1.402,0.576-1.402,1.438
					c0,0.729,0.563,0.972,0.972,0.972c0.727,0,1.344-0.729,1.344-1.438C520.506,396.348,520.13,395.953,519.593,395.953z"/>
				<g>
					<g>
						<linearGradient id="SVGID_43_" gradientUnits="userSpaceOnUse" x1="403.3145" y1="376.8535" x2="428.4941" y2="376.8535">
							<stop  offset="0.0056" style="stop-color:#00417F"/>
							<stop  offset="0.0187" style="stop-color:#004D88"/>
							<stop  offset="0.059" style="stop-color:#006C9F"/>
							<stop  offset="0.1046" style="stop-color:#0088B3"/>
							<stop  offset="0.1562" style="stop-color:#009EC3"/>
							<stop  offset="0.2164" style="stop-color:#00AFD0"/>
							<stop  offset="0.2909" style="stop-color:#00BAD9"/>
							<stop  offset="0.3954" style="stop-color:#00C1DE"/>
							<stop  offset="0.6854" style="stop-color:#00C3DF"/>
						</linearGradient>
						<path fill="url(#SVGID_43_)" d="M405.991,372.258c-0.906,1.528-2.443,4.756-2.677,9.19h25.18v-8.721h-22.644
							C405.883,372.57,405.934,372.414,405.991,372.258z"/>
						<linearGradient id="SVGID_44_" gradientUnits="userSpaceOnUse" x1="411.0527" y1="381.4482" x2="411.0527" y2="331.5596">
							<stop  offset="0" style="stop-color:#00C3DF"/>
							<stop  offset="0.1989" style="stop-color:#00BFDC"/>
							<stop  offset="0.3934" style="stop-color:#00B3D3"/>
							<stop  offset="0.5861" style="stop-color:#00A0C5"/>
							<stop  offset="0.7778" style="stop-color:#0084B0"/>
							<stop  offset="0.9671" style="stop-color:#006196"/>
							<stop  offset="1" style="stop-color:#005A91"/>
						</linearGradient>
						<path fill="url(#SVGID_44_)" d="M410.983,368.301c2.43-1.522,4.456-2.86,6.074-4.004c4.574-3.05,7.72-5.861,9.437-8.433
							c1.619-2.288,2.429-5.197,2.429-8.725c0-4.667-1.525-8.479-4.571-11.434c-3.051-2.765-7.245-4.146-12.58-4.146
							c-5.721,0-10.15,1.523-13.299,4.572c-2.095,2.29-3.477,5.005-4.146,8.149c-0.191,1.335-0.121,2.551,0.215,3.649
							c0.333,1.095,1.499,1.642,3.503,1.642h5.147v-0.431c0-2.761,0.668-5.002,2.003-6.72c1.428-1.619,3.432-2.429,6.003-2.429
							c2.286,0,4.1,0.669,5.433,2.003c1.334,1.238,2.003,3,2.003,5.289c0,1.905-0.856,3.714-2.574,5.434
							c-1.714,1.71-4.147,3.569-7.291,5.571c-0.763,0.48-1.431,0.884-2.002,1.215c-0.572,0.338-0.997,0.597-1.285,0.787
							c-4.006,2.767-7.008,5.768-9.009,9.009c-2.194,3.524-3.289,7.576-3.289,12.147h11.188c0.234-4.435,1.773-7.662,2.676-9.19
							C407.514,370.974,408.821,369.656,410.983,368.301z"/>
						<path fill="none" d="M439.614,356.861c0,3.623,0.358,7.005,1.071,10.15c0.712,3.146,1.884,5.243,3.504,6.289
							c1.048,0.768,2.19,1.144,3.431,1.144c1.143,0,2.335-0.376,3.573-1.144c0.229-0.165,0.442-0.369,0.651-0.586
							c0.597-0.842,0.915-1.412,0.915-1.412s-0.318,0.57-0.915,1.412c1.111-1.164,1.994-3.057,2.637-5.703
							c0.761-3.146,1.146-6.479,1.146-10.005c0-3.531-0.404-6.863-1.213-10.01c-0.813-3.143-1.933-5.29-3.362-6.434
							c-0.954-0.759-2.101-1.139-3.432-1.139c-1.432,0-2.623,0.38-3.574,1.139c-0.184,0.146-0.359,0.311-0.529,0.486
							c-0.487,0.721-0.744,1.192-0.744,1.192s0.257-0.472,0.744-1.192c-1.176,1.215-2.096,3.174-2.76,5.878
							C439.995,350.026,439.614,353.334,439.614,356.861z"/>
						<linearGradient id="SVGID_45_" gradientUnits="userSpaceOnUse" x1="442.752" y1="331.417" x2="442.752" y2="382.1618">
							<stop  offset="0" style="stop-color:#00C3DF"/>
							<stop  offset="0.4267" style="stop-color:#00C1DE"/>
							<stop  offset="0.5804" style="stop-color:#00BAD9"/>
							<stop  offset="0.6899" style="stop-color:#00AFD0"/>
							<stop  offset="0.7785" style="stop-color:#009EC3"/>
							<stop  offset="0.8543" style="stop-color:#0088B3"/>
							<stop  offset="0.9215" style="stop-color:#006C9F"/>
							<stop  offset="0.9808" style="stop-color:#004D88"/>
							<stop  offset="1" style="stop-color:#00417F"/>
						</linearGradient>
						<path fill="url(#SVGID_45_)" d="M451.845,372.715c-0.209,0.217-0.423,0.421-0.651,0.586c-1.238,0.768-2.431,1.144-3.573,1.144
							c-1.24,0-2.383-0.376-3.431-1.144c-1.62-1.046-2.792-3.144-3.504-6.289c-0.713-3.146-1.071-6.527-1.071-10.15
							c0-3.527,0.381-6.835,1.143-9.934c0.664-2.704,1.584-4.663,2.76-5.878c1.683-2.492,6.157-8.019,12.523-7.739
							c-2.435-1.254-5.235-1.894-8.42-1.894c-5.527,0-9.772,1.714-12.722,5.146c-3.623,4.1-5.435,10.866-5.435,20.299
							c0,9.628,1.622,16.254,4.86,19.872c1.24,1.346,2.634,2.438,4.177,3.285C445.15,380.939,449.938,375.408,451.845,372.715z"/>
						<linearGradient id="SVGID_46_" gradientUnits="userSpaceOnUse" x1="452.209" y1="384.0508" x2="452.209" y2="333.3004">
							<stop  offset="0" style="stop-color:#00C3DF"/>
							<stop  offset="0.4267" style="stop-color:#00C1DE"/>
							<stop  offset="0.5804" style="stop-color:#00BAD9"/>
							<stop  offset="0.6899" style="stop-color:#00AFD0"/>
							<stop  offset="0.7785" style="stop-color:#009EC3"/>
							<stop  offset="0.8543" style="stop-color:#0088B3"/>
							<stop  offset="0.9215" style="stop-color:#006C9F"/>
							<stop  offset="0.9808" style="stop-color:#004D88"/>
							<stop  offset="1" style="stop-color:#00417F"/>
						</linearGradient>
						<path fill="url(#SVGID_46_)" d="M460.487,336.707c-1.31-1.424-2.798-2.546-4.447-3.396
							c-6.366-0.279-10.841,5.247-12.523,7.739c0.17-0.176,0.346-0.34,0.529-0.486c0.951-0.759,2.143-1.139,3.574-1.139
							c1.331,0,2.478,0.38,3.432,1.139c1.43,1.144,2.549,3.291,3.362,6.434c0.809,3.146,1.213,6.479,1.213,10.01
							c0,3.525-0.385,6.859-1.146,10.005c-0.643,2.646-1.525,4.539-2.637,5.703c-1.906,2.693-6.694,8.225-13.344,7.304
							c2.607,1.43,5.646,2.146,9.119,2.146c5.529,0,9.767-1.666,12.722-5.003c3.719-4.003,5.576-10.769,5.576-20.301
							C465.918,347.524,464.106,340.806,460.487,336.707z"/>
						<linearGradient id="SVGID_47_" gradientUnits="userSpaceOnUse" x1="497.334" y1="376.8535" x2="522.5137" y2="376.8535">
							<stop  offset="0.0056" style="stop-color:#00417F"/>
							<stop  offset="0.0187" style="stop-color:#004D88"/>
							<stop  offset="0.059" style="stop-color:#006C9F"/>
							<stop  offset="0.1046" style="stop-color:#0088B3"/>
							<stop  offset="0.1562" style="stop-color:#009EC3"/>
							<stop  offset="0.2164" style="stop-color:#00AFD0"/>
							<stop  offset="0.2909" style="stop-color:#00BAD9"/>
							<stop  offset="0.3954" style="stop-color:#00C1DE"/>
							<stop  offset="0.6854" style="stop-color:#00C3DF"/>
						</linearGradient>
						<path fill="url(#SVGID_47_)" d="M500.01,372.258c-0.906,1.528-2.446,4.756-2.676,9.19h25.18v-8.721h-22.646
							C499.9,372.57,499.952,372.414,500.01,372.258z"/>
						<linearGradient id="SVGID_48_" gradientUnits="userSpaceOnUse" x1="505.0732" y1="381.4482" x2="505.0732" y2="331.5596">
							<stop  offset="0" style="stop-color:#00C3DF"/>
							<stop  offset="0.1989" style="stop-color:#00BFDC"/>
							<stop  offset="0.3934" style="stop-color:#00B3D3"/>
							<stop  offset="0.5861" style="stop-color:#00A0C5"/>
							<stop  offset="0.7778" style="stop-color:#0084B0"/>
							<stop  offset="0.9671" style="stop-color:#006196"/>
							<stop  offset="1" style="stop-color:#005A91"/>
						</linearGradient>
						<path fill="url(#SVGID_48_)" d="M504.999,368.301c2.433-1.522,4.455-2.86,6.075-4.004c4.574-3.05,7.721-5.861,9.438-8.433
							c1.621-2.288,2.431-5.197,2.431-8.725c0-4.667-1.528-8.479-4.576-11.434c-3.052-2.765-7.241-4.146-12.578-4.146
							c-5.725,0-10.152,1.523-13.296,4.572c-2.098,2.29-3.48,5.005-4.147,8.149c-0.188,1.335-0.12,2.551,0.215,3.649
							c0.333,1.095,1.5,1.642,3.501,1.642h5.146v-0.431c0-2.761,0.667-5.002,2.003-6.72c1.426-1.619,3.431-2.429,6.005-2.429
							c2.285,0,4.096,0.669,5.433,2.003c1.332,1.238,2,3,2,5.289c0,1.905-0.855,3.714-2.571,5.434
							c-1.717,1.71-4.148,3.569-7.294,5.571c-0.762,0.48-1.429,0.884-2,1.215c-0.574,0.338-1,0.597-1.286,0.787
							c-4.007,2.767-7.004,5.768-9.009,9.009c-2.192,3.524-3.285,7.576-3.285,12.147h11.186c0.232-4.435,1.771-7.662,2.675-9.19
							C501.531,370.974,502.838,369.656,504.999,368.301z"/>
						<linearGradient id="SVGID_49_" gradientUnits="userSpaceOnUse" x1="488.9063" y1="379.8916" x2="473.6814" y2="345.6961">
							<stop  offset="0.6011" style="stop-color:#00C3DF"/>
							<stop  offset="0.6922" style="stop-color:#00C0DD"/>
							<stop  offset="0.7607" style="stop-color:#00B6D6"/>
							<stop  offset="0.8219" style="stop-color:#00A6CA"/>
							<stop  offset="0.8788" style="stop-color:#008FB9"/>
							<stop  offset="0.9327" style="stop-color:#0072A3"/>
							<stop  offset="0.9837" style="stop-color:#004E89"/>
							<stop  offset="1" style="stop-color:#00417F"/>
						</linearGradient>
						<path fill="url(#SVGID_49_)" d="M475.545,347.244v34.204h9.865v-40.974C482.879,346.079,477.79,347.085,475.545,347.244z"/>
						<linearGradient id="SVGID_50_" gradientUnits="userSpaceOnUse" x1="485.4102" y1="340.2881" x2="466.2529" y2="340.2881">
							<stop  offset="0" style="stop-color:#00C3DF"/>
							<stop  offset="0.2283" style="stop-color:#00C0DD"/>
							<stop  offset="0.4001" style="stop-color:#00B6D6"/>
							<stop  offset="0.5535" style="stop-color:#00A6CA"/>
							<stop  offset="0.6961" style="stop-color:#008FB9"/>
							<stop  offset="0.8312" style="stop-color:#0072A3"/>
							<stop  offset="0.959" style="stop-color:#004E89"/>
							<stop  offset="1" style="stop-color:#00417F"/>
						</linearGradient>
						<path fill="url(#SVGID_50_)" d="M485.41,341.532v-4.254c0-1.432-0.502-2.622-1.502-3.574c-1.003-0.953-2.216-1.43-3.646-1.43
							h-2.859c-0.856,3.145-2.406,5.406-4.645,6.793c-2.241,1.383-4.41,2.069-6.506,2.069v7.145h9.292v0.02
							C477.79,348.14,482.879,347.135,485.41,341.532z"/>
					</g>
					<g>
						<linearGradient id="SVGID_51_" gradientUnits="userSpaceOnUse" x1="371.3853" y1="332.4033" x2="371.3853" y2="381.5791">
							<stop  offset="0" style="stop-color:#83D016"/>
							<stop  offset="1" style="stop-color:#2F8006"/>
						</linearGradient>
						<path fill="url(#SVGID_51_)" d="M371.456,332.403c-1.427,0-2.645,0.499-3.645,1.5c-1,1-1.5,2.217-1.5,3.646v44.03h5.002
							c1.429,0,2.644-0.499,3.644-1.502c1.004-1,1.503-2.214,1.503-3.642v-44.032H371.456z"/>
						<linearGradient id="SVGID_52_" gradientUnits="userSpaceOnUse" x1="314.8442" y1="369.7158" x2="275.0595" y2="366.9338">
							<stop  offset="0" style="stop-color:#FFE35F"/>
							<stop  offset="0.2247" style="stop-color:#FFDE5A"/>
							<stop  offset="0.4902" style="stop-color:#FFD04D"/>
							<stop  offset="0.7751" style="stop-color:#FFB836"/>
							<stop  offset="1" style="stop-color:#FFA01F"/>
						</linearGradient>
						<path fill="url(#SVGID_52_)" d="M304.227,368.141c-0.668,1.237-1.479,2.335-2.429,3.287c-0.992,0.742-2.153,1.291-3.479,1.645
							c-1.317,0.429-2.776,0.646-4.384,0.646c-4.383,0-7.671-1.479-9.866-4.435c-2.289-2.858-3.429-6.957-3.429-12.292
							c0-0.051,0.003-0.096,0.003-0.145c0-0.05-0.003-0.093-0.003-0.145c0-1.381,0.079-2.676,0.232-3.893
							c-3.372,2.827-7.514,9.132-5.032,22.4c0.218,0.263,0.42,0.544,0.654,0.791c4.026,4.403,9.81,6.632,17.335,6.706
							c6.165-0.074,11.163-1.636,14.973-4.703c3.681-3.128,5.791-7.422,6.362-12.865h-6.078
							C306.798,365.14,305.178,366.138,304.227,368.141z"/>
						<linearGradient id="SVGID_53_" gradientUnits="userSpaceOnUse" x1="269.7056" y1="356.2871" x2="322.7451" y2="345.9773">
							<stop  offset="0" style="stop-color:#FFE35F"/>
							<stop  offset="0.2247" style="stop-color:#FFDE5A"/>
							<stop  offset="0.4902" style="stop-color:#FFD04D"/>
							<stop  offset="0.7751" style="stop-color:#FFB836"/>
							<stop  offset="1" style="stop-color:#FFA01F"/>
						</linearGradient>
						<path fill="url(#SVGID_53_)" d="M280.697,354.745c0.438-3.482,1.675-8.217,3.372-10.336c2.194-2.953,5.482-4.434,9.866-4.434
							c1.608,0,3.067,0.223,4.384,0.646c1.326,0.356,2.487,0.9,3.479,1.644c0.95,0.955,1.761,2.053,2.429,3.288
							c0.951,2.003,2.571,3.003,4.86,3.003h6.078c-0.571-5.441-2.681-9.734-6.362-12.865c-3.81-3.069-8.808-4.629-14.973-4.703
							c-7.524,0.074-13.309,2.304-17.335,6.705c-3.98,4.262-5.977,10.652-6,19.155c0.021,8.01,2.579,15.043,6.109,19.29
							C274.122,362.869,277.325,357.57,280.697,354.745z"/>
						<linearGradient id="SVGID_54_" gradientUnits="userSpaceOnUse" x1="325.7573" y1="358.7793" x2="355.666" y2="358.7793">
							<stop  offset="0.0056" style="stop-color:#6D0C34"/>
							<stop  offset="0.046" style="stop-color:#880A36"/>
							<stop  offset="0.1091" style="stop-color:#AD0739"/>
							<stop  offset="0.1757" style="stop-color:#CB043C"/>
							<stop  offset="0.2456" style="stop-color:#E2023E"/>
							<stop  offset="0.3204" style="stop-color:#F2013F"/>
							<stop  offset="0.4035" style="stop-color:#FC0040"/>
							<stop  offset="0.5112" style="stop-color:#FF0040"/>
							<stop  offset="0.5726" style="stop-color:#F9003F"/>
							<stop  offset="0.6511" style="stop-color:#EA003D"/>
							<stop  offset="0.7389" style="stop-color:#CF0039"/>
							<stop  offset="0.8334" style="stop-color:#AB0034"/>
							<stop  offset="0.9323" style="stop-color:#7C002D"/>
							<stop  offset="1" style="stop-color:#580028"/>
						</linearGradient>
						<polygon fill="url(#SVGID_54_)" points="355.666,354.277 325.757,354.277 325.757,363.28 355.663,363.28 355.663,355.296 
													"/>
						
							<linearGradient id="SVGID_55_" gradientUnits="userSpaceOnUse" x1="490.8779" y1="110.8496" x2="490.8779" y2="61.6738" gradientTransform="matrix(-1 0 0 -1 815.2324 443.2529)">
							<stop  offset="0" style="stop-color:#FF5F87"/>
							<stop  offset="1" style="stop-color:#DF0028"/>
						</linearGradient>
						<polygon fill="url(#SVGID_55_)" points="329.5,354.277 329.5,332.403 319.209,332.403 319.209,381.579 329.5,381.579 
							329.5,363.28 329.5,363.28 329.5,354.277 						"/>
						
							<linearGradient id="SVGID_56_" gradientUnits="userSpaceOnUse" x1="460.3555" y1="61.6738" x2="460.3555" y2="110.8496" gradientTransform="matrix(-1 0 0 -1 815.2324 443.2529)">
							<stop  offset="0" style="stop-color:#FF5F87"/>
							<stop  offset="1" style="stop-color:#DF0028"/>
						</linearGradient>
						<path fill="url(#SVGID_56_)" d="M349.802,332.403v21.874l0,0l0.021,1.097l-0.021,7.906l0,0v18.299h5.004
							c1.428,0,2.642-0.499,3.644-1.502c1-1,1.5-2.214,1.5-3.642v-44.032H349.802z"/>
					</g>
				</g>
			</g>
			<g>
				<linearGradient id="SVGID_57_" gradientUnits="userSpaceOnUse" x1="310.9844" y1="438.335" x2="310.9844" y2="457.8213">
					<stop  offset="0" style="stop-color:#5FAD0F"/>
					<stop  offset="1" style="stop-color:#2F8006"/>
				</linearGradient>
				<path fill="url(#SVGID_57_)" d="M304.632,457.821c-0.296,0-0.54-0.096-0.731-0.285c-0.191-0.189-0.286-0.432-0.286-0.728
					v-17.461c0-0.296,0.095-0.537,0.288-0.728c0.192-0.188,0.437-0.285,0.736-0.285c0.234,0,0.454,0.086,0.656,0.253
					c0.202,0.17,0.335,0.359,0.4,0.57v-0.032l5.29,14.487c0.885-2.425,1.783-4.86,2.69-7.307s1.803-4.882,2.69-7.307v0.031
					c0.168-0.463,0.495-0.696,0.979-0.696c0.252,0,0.483,0.097,0.694,0.285c0.21,0.19,0.315,0.432,0.315,0.728v17.461
					c0,0.296-0.106,0.538-0.318,0.728c-0.211,0.189-0.445,0.285-0.699,0.285c-0.297,0-0.541-0.096-0.731-0.285
					c-0.191-0.189-0.286-0.432-0.286-0.728v-11.768c-0.737,1.987-1.458,3.946-2.163,5.879c-0.705,1.934-1.415,3.893-2.131,5.878
					c-0.042,0.232-0.158,0.439-0.347,0.619c-0.19,0.179-0.411,0.269-0.663,0.269c-0.463,0-0.779-0.242-0.947-0.729v0.032
					c-0.463-1.268-0.868-2.366-1.216-3.296s-0.679-1.827-0.994-2.693c-0.316-0.865-0.647-1.769-0.994-2.709
					c-0.348-0.94-0.752-2.043-1.215-3.312v11.83c0,0.296-0.095,0.538-0.286,0.728C305.173,457.726,304.929,457.821,304.632,457.821z
					"/>
				<linearGradient id="SVGID_58_" gradientUnits="userSpaceOnUse" x1="329.106" y1="438.0645" x2="329.106" y2="457.8672">
					<stop  offset="0" style="stop-color:#5FAD0F"/>
					<stop  offset="1" style="stop-color:#2F8006"/>
				</linearGradient>
				<path fill="url(#SVGID_58_)" d="M323.251,457.867c-0.296,0-0.539-0.106-0.729-0.316c-0.19-0.211-0.284-0.443-0.284-0.696
					c0-0.043,0.137-0.49,0.411-1.345c0.274-0.854,0.617-1.914,1.028-3.179c0.412-1.266,0.86-2.642,1.345-4.128
					c0.485-1.486,0.944-2.895,1.376-4.224c0.432-1.328,0.807-2.473,1.124-3.432c0.317-0.959,0.517-1.556,0.602-1.788
					c0.062-0.23,0.189-0.406,0.379-0.521c0.19-0.115,0.39-0.174,0.601-0.174c0.21,0,0.406,0.059,0.585,0.174
					c0.179,0.115,0.311,0.291,0.395,0.521c0.042,0.232,0.212,0.781,0.507,1.646c0.295,0.864,0.644,1.919,1.044,3.163
					c0.295,0.887,0.606,1.819,0.934,2.8c0.326,0.98,0.653,1.961,0.98,2.941c0.327,0.98,0.632,1.915,0.918,2.8
					c0.285,0.885,0.537,1.677,0.759,2.373c0.221,0.695,0.401,1.254,0.539,1.677c0.137,0.421,0.205,0.652,0.205,0.695
					c0,0.253-0.105,0.485-0.316,0.696c-0.211,0.21-0.443,0.316-0.696,0.316c-0.21,0-0.411-0.064-0.601-0.19
					c-0.19-0.126-0.317-0.306-0.379-0.537l-2.089-6.417h-5.57c-0.359,1.117-0.712,2.191-1.061,3.226
					c-0.348,1.032-0.702,2.096-1.06,3.191C324.031,457.624,323.715,457.867,323.251,457.867z M326.986,448.689h4.208l-2.088-6.488
					L326.986,448.689z"/>
				<linearGradient id="SVGID_59_" gradientUnits="userSpaceOnUse" x1="341.8369" y1="438.29" x2="341.8369" y2="457.7764">
					<stop  offset="0" style="stop-color:#5FAD0F"/>
					<stop  offset="1" style="stop-color:#2F8006"/>
				</linearGradient>
				<path fill="url(#SVGID_59_)" d="M346.62,438.29c0.295,0,0.538,0.106,0.728,0.317c0.189,0.21,0.285,0.442,0.285,0.695
					c0,0.106-0.143,0.442-0.427,1.012c-0.286,0.569-0.634,1.251-1.045,2.04c-0.412,0.792-0.844,1.613-1.297,2.468
					s-0.859,1.618-1.218,2.293l-0.792,1.487v8.161c0,0.295-0.095,0.539-0.286,0.728c-0.19,0.188-0.434,0.285-0.731,0.285
					s-0.54-0.097-0.731-0.285c-0.19-0.188-0.286-0.433-0.286-0.728v-8.192c-0.043-0.084-0.102-0.175-0.175-0.269
					c-0.073-0.095-0.131-0.195-0.174-0.302v0.031c-0.19-0.357-0.438-0.816-0.744-1.376c-0.306-0.558-0.622-1.149-0.95-1.771
					c-0.327-0.622-0.653-1.25-0.981-1.883c-0.327-0.632-0.622-1.212-0.886-1.738c-0.264-0.527-0.475-0.971-0.633-1.329
					c-0.158-0.359-0.237-0.57-0.237-0.633c0-0.253,0.094-0.485,0.284-0.695c0.19-0.211,0.434-0.317,0.729-0.317
					c0.379,0,0.674,0.19,0.885,0.57c0.359,0.696,0.697,1.338,1.013,1.93c0.316,0.591,0.627,1.164,0.933,1.724
					c0.306,0.56,0.617,1.129,0.935,1.708c0.317,0.58,0.656,1.218,1.017,1.913c0.593-1.139,1.232-2.336,1.918-3.589
					c0.686-1.256,1.335-2.463,1.947-3.622c0.084-0.19,0.21-0.344,0.379-0.459C346.251,438.35,346.43,438.29,346.62,438.29z"/>
				<linearGradient id="SVGID_60_" gradientUnits="userSpaceOnUse" x1="366.2808" y1="438.9238" x2="366.2808" y2="457.9561">
					<stop  offset="0" style="stop-color:#5FAD0F"/>
					<stop  offset="1" style="stop-color:#2F8006"/>
				</linearGradient>
				<path fill="url(#SVGID_60_)" d="M366.281,444.213c0.909,0,1.717,0.212,2.425,0.632c0.708,0.422,1.3,0.964,1.775,1.627
					c0.476,0.664,0.84,1.406,1.093,2.227c0.254,0.822,0.381,1.622,0.381,2.402c0,0.8-0.127,1.606-0.381,2.417
					c-0.253,0.812-0.618,1.544-1.093,2.196c-0.475,0.652-1.067,1.19-1.775,1.611c-0.708,0.42-1.516,0.631-2.425,0.631
					c-0.867,0-1.648-0.173-2.346-0.521c-0.698-0.347-1.289-0.806-1.775-1.374c-0.485-0.568-0.867-1.227-1.141-1.975
					c-0.275-0.747-0.412-1.521-0.412-2.322v-0.157c0-0.147,0-0.311,0-0.49s0.031-0.343,0.095-0.489
					c0.062-0.147,0.167-0.274,0.315-0.379c0.146-0.106,0.368-0.159,0.664-0.159c0.294,0,0.52,0.116,0.678,0.348
					c0.158,0.232,0.237,0.463,0.237,0.695c0,0.064-0.008,0.127-0.022,0.189c-0.016,0.064-0.023,0.116-0.023,0.158v0.284
					c0,0.549,0.085,1.075,0.255,1.58c0.169,0.507,0.418,0.953,0.748,1.343c0.329,0.391,0.721,0.7,1.177,0.933
					c0.457,0.231,0.971,0.348,1.544,0.348c0.593,0,1.124-0.152,1.591-0.458c0.466-0.305,0.854-0.694,1.161-1.17
					c0.307-0.473,0.541-0.995,0.7-1.563s0.239-1.128,0.239-1.676c0-0.527-0.08-1.079-0.238-1.659
					c-0.159-0.579-0.392-1.112-0.699-1.596c-0.306-0.485-0.693-0.88-1.158-1.185c-0.465-0.307-0.994-0.459-1.586-0.459
					c-0.614,0-1.201,0.143-1.762,0.428s-1.073,0.648-1.538,1.092c-0.127,0.127-0.264,0.211-0.412,0.254
					c-0.148,0.041-0.284,0.052-0.411,0.031c-0.317,0.041-0.602-0.047-0.855-0.269c-0.252-0.223-0.358-0.491-0.316-0.808l0.823-7.121
					c0.042-0.253,0.153-0.464,0.333-0.633c0.179-0.169,0.406-0.253,0.68-0.253h7.678c0.253,0,0.485,0.095,0.696,0.284
					c0.21,0.188,0.316,0.432,0.316,0.726c0,0.273-0.106,0.506-0.316,0.694c-0.211,0.189-0.443,0.284-0.696,0.284h-6.789
					c-0.043,0.424-0.085,0.788-0.128,1.095c-0.042,0.307-0.084,0.612-0.127,0.92c-0.042,0.306-0.084,0.622-0.126,0.949
					c-0.042,0.328-0.085,0.725-0.127,1.19c0.486-0.253,0.993-0.458,1.522-0.615C365.256,444.292,365.774,444.213,366.281,444.213z"
					/>
				<linearGradient id="SVGID_61_" gradientUnits="userSpaceOnUse" x1="379.5845" y1="446.5645" x2="379.5845" y2="448.5537">
					<stop  offset="0" style="stop-color:#5FAD0F"/>
					<stop  offset="1" style="stop-color:#2F8006"/>
				</linearGradient>
				<path fill="url(#SVGID_61_)" d="M375.993,448.237c-0.19-0.21-0.285-0.441-0.285-0.694c0-0.273,0.095-0.506,0.285-0.694
					c0.188-0.189,0.432-0.284,0.727-0.284h5.792c0.274,0,0.501,0.095,0.68,0.284c0.18,0.188,0.27,0.421,0.27,0.694
					c0,0.253-0.09,0.484-0.27,0.694c-0.179,0.21-0.406,0.316-0.68,0.316h-5.792C376.425,448.554,376.181,448.447,375.993,448.237z"
					/>
				<linearGradient id="SVGID_62_" gradientUnits="userSpaceOnUse" x1="391.9956" y1="438.7871" x2="391.9956" y2="457.5947">
					<stop  offset="0" style="stop-color:#5FAD0F"/>
					<stop  offset="1" style="stop-color:#2F8006"/>
				</linearGradient>
				<path fill="url(#SVGID_62_)" d="M393.935,455.605c0.299,0,0.544,0.096,0.735,0.285c0.19,0.189,0.287,0.432,0.287,0.726
					c0,0.231-0.096,0.453-0.285,0.662c-0.191,0.211-0.434,0.316-0.729,0.316h-3.202c-0.274,0-0.507-0.105-0.696-0.316
					c-0.191-0.209-0.286-0.431-0.286-0.662c0-0.294,0.095-0.536,0.285-0.726s0.422-0.285,0.697-0.285h0.601l-0.015-13.909
					c-0.255,0.168-0.504,0.316-0.748,0.442c-0.244,0.126-0.43,0.189-0.557,0.189c-0.297,0-0.536-0.095-0.715-0.284
					c-0.181-0.189-0.271-0.432-0.271-0.728c0-0.146,0.032-0.294,0.095-0.442c0.063-0.147,0.17-0.273,0.318-0.38
					c0.106-0.083,0.292-0.221,0.557-0.411c0.265-0.188,0.546-0.378,0.842-0.568c0.297-0.188,0.584-0.357,0.86-0.505
					c0.275-0.147,0.477-0.223,0.604-0.223c0.297,0,0.541,0.096,0.731,0.286c0.191,0.189,0.286,0.421,0.286,0.693v15.839H393.935z"/>
				<linearGradient id="SVGID_63_" gradientUnits="userSpaceOnUse" x1="407.2168" y1="438.2461" x2="407.2168" y2="458.0029">
					<stop  offset="0" style="stop-color:#5FAD0F"/>
					<stop  offset="1" style="stop-color:#2F8006"/>
				</linearGradient>
				<path fill="url(#SVGID_63_)" d="M407.217,438.246c0.971,0,1.889,0.283,2.754,0.853c0.696,0.464,1.293,1.049,1.787,1.755
					c0.496,0.706,0.902,1.465,1.22,2.276c0.316,0.812,0.543,1.648,0.68,2.513s0.205,1.687,0.205,2.466
					c0,0.78-0.074,1.602-0.222,2.465c-0.147,0.864-0.374,1.707-0.68,2.529c-0.307,0.821-0.707,1.585-1.203,2.292
					c-0.494,0.705-1.091,1.291-1.787,1.754c-0.865,0.569-1.783,0.854-2.754,0.854s-1.889-0.285-2.753-0.854
					c-0.697-0.463-1.293-1.049-1.789-1.754c-0.495-0.707-0.896-1.471-1.202-2.292c-0.307-0.822-0.533-1.665-0.68-2.529
					c-0.147-0.863-0.222-1.685-0.222-2.465c0-0.779,0.069-1.602,0.206-2.466s0.364-1.701,0.68-2.513s0.723-1.57,1.218-2.276
					c0.496-0.706,1.092-1.291,1.789-1.755C405.328,438.529,406.246,438.246,407.217,438.246z M407.217,456.013
					c0.612,0,1.162-0.179,1.647-0.537c0.549-0.358,1.013-0.822,1.394-1.392c0.38-0.568,0.692-1.19,0.935-1.865
					c0.243-0.675,0.417-1.37,0.522-2.088c0.105-0.716,0.158-1.391,0.158-2.022c0-0.611-0.058-1.271-0.174-1.976
					c-0.116-0.708-0.301-1.393-0.555-2.057c-0.254-0.663-0.57-1.285-0.95-1.865c-0.38-0.579-0.823-1.059-1.33-1.439
					c-0.232-0.168-0.496-0.3-0.793-0.395c-0.296-0.095-0.58-0.143-0.854-0.143s-0.561,0.048-0.855,0.143
					c-0.297,0.095-0.56,0.227-0.791,0.395c-0.508,0.381-0.951,0.86-1.332,1.439c-0.379,0.58-0.697,1.202-0.95,1.865
					c-0.253,0.664-0.438,1.349-0.554,2.057c-0.116,0.705-0.175,1.364-0.175,1.976c0,0.632,0.052,1.307,0.159,2.022
					c0.104,0.718,0.279,1.413,0.522,2.088c0.242,0.675,0.555,1.297,0.936,1.865c0.38,0.569,0.843,1.033,1.394,1.392
					C406.056,455.834,406.604,456.013,407.217,456.013z"/>
				<linearGradient id="SVGID_64_" gradientUnits="userSpaceOnUse" x1="419.0391" y1="455.1992" x2="419.0391" y2="460.084">
					<stop  offset="0" style="stop-color:#5FAD0F"/>
					<stop  offset="1" style="stop-color:#2F8006"/>
				</linearGradient>
				<path fill="url(#SVGID_64_)" d="M420.469,456.655c0,0.189-0.058,0.465-0.174,0.822c-0.116,0.359-0.264,0.717-0.442,1.077
					c-0.18,0.358-0.381,0.68-0.603,0.965c-0.223,0.283-0.428,0.459-0.616,0.522c-0.254,0.084-0.497,0.041-0.729-0.127
					c-0.232-0.169-0.327-0.38-0.285-0.633c0.021-0.316,0.131-0.66,0.332-1.028c0.201-0.369,0.322-0.67,0.364-0.902
					c-0.254-0.253-0.379-0.549-0.379-0.887c0-0.316,0.13-0.606,0.395-0.87c0.264-0.264,0.555-0.396,0.87-0.396
					c0.338,0,0.622,0.127,0.855,0.38c0.231,0.253,0.369,0.528,0.411,0.822V456.655z"/>
				<linearGradient id="SVGID_65_" gradientUnits="userSpaceOnUse" x1="438.7871" y1="438.4268" x2="438.7871" y2="457.6855">
					<stop  offset="0" style="stop-color:#5FAD0F"/>
					<stop  offset="1" style="stop-color:#2F8006"/>
				</linearGradient>
				<path fill="url(#SVGID_65_)" d="M438.788,438.427c0.781,0,1.51,0.148,2.185,0.442c0.676,0.296,1.268,0.703,1.773,1.221
					c0.508,0.518,0.909,1.119,1.204,1.806c0.295,0.688,0.443,1.421,0.443,2.202c0,0.994-0.142,1.85-0.426,2.567
					c-0.285,0.718-0.664,1.352-1.139,1.9c-0.476,0.551-1.007,1.036-1.597,1.458c-0.592,0.423-1.203,0.836-1.834,1.236
					c-0.464,0.297-0.918,0.592-1.36,0.888c-0.441,0.296-0.848,0.617-1.216,0.966c-0.369,0.349-0.686,0.735-0.949,1.158
					c-0.264,0.421-0.437,0.897-0.521,1.425h7.848c0.295,0,0.539,0.096,0.729,0.284c0.189,0.189,0.284,0.421,0.284,0.695
					c0,0.253-0.095,0.483-0.285,0.694c-0.19,0.21-0.435,0.315-0.73,0.315h-8.941l-0.381-0.045l-0.316-0.254l-0.287-0.349
					l-0.031-0.38c0-0.949,0.147-1.784,0.442-2.501c0.296-0.718,0.682-1.351,1.156-1.899c0.475-0.548,1.008-1.039,1.599-1.473
					c0.592-0.433,1.193-0.839,1.807-1.219c0.505-0.316,1.007-0.648,1.503-0.997s0.939-0.734,1.329-1.156
					c0.391-0.422,0.703-0.896,0.935-1.425c0.232-0.528,0.349-1.141,0.349-1.836c0-0.508-0.09-0.988-0.269-1.441
					c-0.18-0.454-0.429-0.85-0.745-1.188c-0.315-0.337-0.696-0.606-1.141-0.807c-0.443-0.202-0.918-0.302-1.425-0.302
					c-0.505,0-0.98,0.102-1.425,0.302c-0.442,0.202-0.823,0.467-1.139,0.794c-0.317,0.329-0.571,0.716-0.761,1.16
					c-0.19,0.445-0.285,0.922-0.285,1.43c0,0.297-0.09,0.54-0.268,0.729c-0.18,0.191-0.416,0.288-0.711,0.288
					s-0.537-0.096-0.727-0.287c-0.188-0.189-0.284-0.433-0.284-0.729c0-0.782,0.142-1.517,0.428-2.203
					c0.285-0.688,0.681-1.29,1.188-1.809c0.507-0.518,1.104-0.925,1.79-1.221C437.272,438.575,438.007,438.427,438.788,438.427z"/>
				<linearGradient id="SVGID_66_" gradientUnits="userSpaceOnUse" x1="454.7969" y1="438.2461" x2="454.7969" y2="458.0029">
					<stop  offset="0" style="stop-color:#5FAD0F"/>
					<stop  offset="1" style="stop-color:#2F8006"/>
				</linearGradient>
				<path fill="url(#SVGID_66_)" d="M454.797,438.246c0.971,0,1.889,0.283,2.753,0.853c0.696,0.464,1.292,1.049,1.789,1.755
					c0.495,0.706,0.901,1.465,1.218,2.276s0.543,1.648,0.681,2.513c0.137,0.864,0.205,1.687,0.205,2.466
					c0,0.78-0.074,1.602-0.222,2.465c-0.147,0.864-0.374,1.707-0.681,2.529c-0.305,0.821-0.706,1.585-1.201,2.292
					c-0.497,0.705-1.093,1.291-1.789,1.754c-0.864,0.569-1.782,0.854-2.753,0.854c-0.972,0-1.89-0.285-2.754-0.854
					c-0.696-0.463-1.292-1.049-1.788-1.754c-0.497-0.707-0.896-1.471-1.203-2.292c-0.306-0.822-0.532-1.665-0.68-2.529
					c-0.147-0.863-0.221-1.685-0.221-2.465c0-0.779,0.068-1.602,0.205-2.466s0.363-1.701,0.68-2.513
					c0.317-0.812,0.722-1.57,1.219-2.276c0.496-0.706,1.092-1.291,1.788-1.755C452.907,438.529,453.825,438.246,454.797,438.246z
					 M454.797,456.013c0.612,0,1.161-0.179,1.647-0.537c0.549-0.358,1.013-0.822,1.394-1.392c0.38-0.568,0.691-1.19,0.934-1.865
					c0.244-0.675,0.417-1.37,0.523-2.088c0.105-0.716,0.157-1.391,0.157-2.022c0-0.611-0.057-1.271-0.174-1.976
					c-0.115-0.708-0.3-1.393-0.555-2.057c-0.253-0.663-0.57-1.285-0.95-1.865c-0.379-0.579-0.822-1.059-1.329-1.439
					c-0.233-0.168-0.497-0.3-0.793-0.395c-0.295-0.095-0.581-0.143-0.854-0.143c-0.275,0-0.561,0.048-0.856,0.143
					c-0.295,0.095-0.559,0.227-0.791,0.395c-0.507,0.381-0.951,0.86-1.33,1.439c-0.38,0.58-0.697,1.202-0.952,1.865
					c-0.252,0.664-0.438,1.349-0.554,2.057c-0.115,0.705-0.174,1.364-0.174,1.976c0,0.632,0.053,1.307,0.158,2.022
					c0.105,0.718,0.28,1.413,0.522,2.088c0.243,0.675,0.555,1.297,0.935,1.865c0.381,0.569,0.846,1.033,1.395,1.392
					C453.635,455.834,454.184,456.013,454.797,456.013z"/>
				<linearGradient id="SVGID_67_" gradientUnits="userSpaceOnUse" x1="470.125" y1="438.7871" x2="470.125" y2="457.5947">
					<stop  offset="0" style="stop-color:#5FAD0F"/>
					<stop  offset="1" style="stop-color:#2F8006"/>
				</linearGradient>
				<path fill="url(#SVGID_67_)" d="M472.063,455.605c0.299,0,0.543,0.096,0.734,0.285s0.288,0.432,0.288,0.726
					c0,0.231-0.097,0.453-0.287,0.662c-0.189,0.211-0.434,0.316-0.728,0.316h-3.202c-0.275,0-0.509-0.105-0.698-0.316
					c-0.19-0.209-0.285-0.431-0.285-0.662c0-0.294,0.095-0.536,0.285-0.726c0.189-0.189,0.421-0.285,0.695-0.285h0.603
					l-0.016-13.909c-0.255,0.168-0.504,0.316-0.747,0.442c-0.244,0.126-0.431,0.189-0.558,0.189c-0.297,0-0.535-0.095-0.716-0.284
					s-0.27-0.432-0.27-0.728c0-0.146,0.031-0.294,0.095-0.442c0.063-0.147,0.169-0.273,0.317-0.38
					c0.106-0.083,0.292-0.221,0.558-0.411c0.265-0.188,0.546-0.378,0.843-0.568c0.297-0.188,0.584-0.357,0.859-0.505
					c0.274-0.147,0.478-0.223,0.604-0.223c0.298,0,0.542,0.096,0.732,0.286c0.191,0.189,0.287,0.421,0.287,0.693v15.839H472.063z"/>
				<linearGradient id="SVGID_68_" gradientUnits="userSpaceOnUse" x1="484.2148" y1="438.4268" x2="484.2148" y2="457.6855">
					<stop  offset="0" style="stop-color:#5FAD0F"/>
					<stop  offset="1" style="stop-color:#2F8006"/>
				</linearGradient>
				<path fill="url(#SVGID_68_)" d="M484.216,438.427c0.78,0,1.509,0.148,2.185,0.442c0.675,0.296,1.267,0.703,1.772,1.221
					c0.508,0.518,0.909,1.119,1.205,1.806c0.295,0.688,0.443,1.421,0.443,2.202c0,0.994-0.143,1.85-0.427,2.567
					s-0.664,1.352-1.139,1.9c-0.474,0.551-1.006,1.036-1.597,1.458c-0.59,0.423-1.201,0.836-1.832,1.236
					c-0.465,0.297-0.918,0.592-1.36,0.888c-0.443,0.296-0.849,0.617-1.217,0.966c-0.369,0.349-0.687,0.735-0.948,1.158
					c-0.265,0.421-0.438,0.897-0.522,1.425h7.849c0.295,0,0.538,0.096,0.729,0.284c0.188,0.189,0.284,0.421,0.284,0.695
					c0,0.253-0.096,0.483-0.285,0.694c-0.191,0.21-0.434,0.315-0.73,0.315h-8.942l-0.381-0.045l-0.316-0.254l-0.285-0.349
					l-0.032-0.38c0-0.949,0.147-1.784,0.443-2.501c0.294-0.718,0.681-1.351,1.154-1.899c0.476-0.548,1.009-1.039,1.601-1.473
					c0.59-0.433,1.191-0.839,1.805-1.219c0.506-0.316,1.008-0.648,1.504-0.997s0.938-0.734,1.329-1.156s0.702-0.896,0.935-1.425
					c0.231-0.528,0.349-1.141,0.349-1.836c0-0.508-0.09-0.988-0.27-1.441c-0.18-0.454-0.428-0.85-0.745-1.188
					c-0.315-0.337-0.696-0.606-1.141-0.807c-0.442-0.202-0.918-0.302-1.424-0.302s-0.98,0.102-1.424,0.302
					c-0.444,0.202-0.825,0.467-1.141,0.794c-0.316,0.329-0.57,0.716-0.761,1.16c-0.189,0.445-0.284,0.922-0.284,1.43
					c0,0.297-0.09,0.54-0.269,0.729c-0.18,0.191-0.416,0.288-0.711,0.288s-0.536-0.096-0.727-0.287
					c-0.188-0.189-0.284-0.433-0.284-0.729c0-0.782,0.143-1.517,0.428-2.203c0.285-0.688,0.681-1.29,1.188-1.809
					c0.507-0.518,1.103-0.925,1.789-1.221C482.7,438.575,483.434,438.427,484.216,438.427z"/>
			</g>
		</g>
	</g>
</g>
</svg>
